<?xml version="1.0" encoding="UTF-8"?>
<svg id="Capa_2" xmlns="http://www.w3.org/2000/svg" viewBox="0 0 32 30.58">
  <defs>
    <style>
      .cls-1 {
        fill: #cad8ce;
      }
    </style>
  </defs>
  <g id="Capa_1-2" data-name="Capa_1">
    <path class="cls-1" d="M32,13.03c-.22-1.3-.64-2.53-1.24-3.69l-5.02.83-8.81,4.76,1.63-9.75-.83-5.02c-.55-.06-1.17-.1-1.88-.15-.71-.04-1.4-.02-2.06.05l-.6,5.03,1.84,9.84-8.86-4.63-5.07-.71c-.53,1.15-.89,2.37-1.1,3.66l4.47,2.23,10.09,1.23-7.25,7.07-2.19,4.58c.61.47,1.15.87,1.62,1.22.47.34.99.67,1.54.99l3.41-3.74,4.34-8.96,4.47,8.92,3.56,3.61c.48-.35.99-.71,1.54-1.09.55-.38,1.07-.74,1.55-1.1l-2.32-4.46-7.29-6.99,9.84-1.5,4.62-2.24Z"/>
  </g>
</svg>