<?xml version="1.0" encoding="UTF-8"?>
<svg id="Capa_2" xmlns="http://www.w3.org/2000/svg" viewBox="0 0 20 19.11">
  <defs>
    <style>
      .cls-1 {
        fill: #cad8ce;
      }
    </style>
  </defs>
  <g id="Capa_1-2" data-name="Capa_1">
    <path class="cls-1" d="M20,8.14c-.14-.81-.4-1.58-.78-2.31l-3.14.52-5.5,2.98,1.02-6.09L11.08.1c-.34-.04-.73-.06-1.17-.09-.44-.02-.87-.01-1.29.03l-.37,3.14,1.15,6.15-5.54-2.89-3.17-.44c-.33.72-.56,1.48-.69,2.29l2.79,1.4,6.3.77-4.53,4.42-1.37,2.86c.38.29.72.55,1.01.76.3.21.62.42.96.62l2.13-2.34,2.71-5.6,2.8,5.58,2.22,2.26c.3-.22.62-.45.96-.68.35-.24.67-.47.97-.69l-1.45-2.79-4.55-4.37,6.15-.94,2.89-1.4Z"/>
  </g>
</svg>